<mxfile host="app.diagrams.net" modified="2020-06-22T18:01:12.423Z" agent="5.0 (Windows NT 10.0; Win64; x64) AppleWebKit/537.36 (KHTML, like Gecko) Chrome/83.0.4103.106 Safari/537.36 Edg/83.0.478.54" etag="Ste0yOXJPE1EF37cSQn5" version="13.3.0" type="github">
  <diagram id="P3j6dAIsvrUMzUMqBuSW" name="Page-1">
    <mxGraphModel dx="2370" dy="1280" grid="1" gridSize="10" guides="1" tooltips="1" connect="1" arrows="1" fold="1" page="1" pageScale="1" pageWidth="850" pageHeight="1100" math="0" shadow="0">
      <root>
        <mxCell id="0" />
        <mxCell id="1" parent="0" />
        <mxCell id="Yq_Sqw8GL6V6F3GW0pic-1" value="Cougars OMDB&amp;nbsp;&amp;nbsp;" style="text;strokeColor=none;fillColor=none;html=1;fontSize=24;fontStyle=1;verticalAlign=middle;align=center;" vertex="1" parent="1">
          <mxGeometry x="120" y="260" width="100" height="40" as="geometry" />
        </mxCell>
        <mxCell id="Yq_Sqw8GL6V6F3GW0pic-2" value="made" style="shape=rhombus;perimeter=rhombusPerimeter;whiteSpace=wrap;html=1;align=center;" vertex="1" parent="1">
          <mxGeometry x="710" y="840" width="120" height="60" as="geometry" />
        </mxCell>
        <mxCell id="Yq_Sqw8GL6V6F3GW0pic-3" value="acts" style="shape=rhombus;perimeter=rhombusPerimeter;whiteSpace=wrap;html=1;align=center;" vertex="1" parent="1">
          <mxGeometry x="830" y="790" width="120" height="60" as="geometry" />
        </mxCell>
        <mxCell id="Yq_Sqw8GL6V6F3GW0pic-4" value="sings" style="shape=rhombus;perimeter=rhombusPerimeter;whiteSpace=wrap;html=1;align=center;" vertex="1" parent="1">
          <mxGeometry x="470" y="420" width="120" height="60" as="geometry" />
        </mxCell>
        <mxCell id="Yq_Sqw8GL6V6F3GW0pic-5" value="singer" style="whiteSpace=wrap;html=1;align=center;" vertex="1" parent="1">
          <mxGeometry x="340" y="390" width="100" height="40" as="geometry" />
        </mxCell>
        <mxCell id="Yq_Sqw8GL6V6F3GW0pic-6" value="singerID" style="ellipse;whiteSpace=wrap;html=1;align=center;fontStyle=4;" vertex="1" parent="1">
          <mxGeometry x="270" y="330" width="100" height="40" as="geometry" />
        </mxCell>
        <mxCell id="Yq_Sqw8GL6V6F3GW0pic-7" value="full_name" style="ellipse;whiteSpace=wrap;html=1;align=center;" vertex="1" parent="1">
          <mxGeometry x="400" y="330" width="100" height="40" as="geometry" />
        </mxCell>
        <mxCell id="Yq_Sqw8GL6V6F3GW0pic-8" value="" style="endArrow=none;html=1;rounded=0;" edge="1" parent="1" source="Yq_Sqw8GL6V6F3GW0pic-6" target="Yq_Sqw8GL6V6F3GW0pic-5">
          <mxGeometry relative="1" as="geometry">
            <mxPoint x="340" y="350" as="sourcePoint" />
            <mxPoint x="500" y="350" as="targetPoint" />
          </mxGeometry>
        </mxCell>
        <mxCell id="Yq_Sqw8GL6V6F3GW0pic-9" value="" style="endArrow=none;html=1;rounded=0;" edge="1" parent="1" source="Yq_Sqw8GL6V6F3GW0pic-5" target="Yq_Sqw8GL6V6F3GW0pic-7">
          <mxGeometry relative="1" as="geometry">
            <mxPoint x="350.00438955365263" y="289.9965697742887" as="sourcePoint" />
            <mxPoint x="423.06" y="316.52" as="targetPoint" />
          </mxGeometry>
        </mxCell>
        <mxCell id="Yq_Sqw8GL6V6F3GW0pic-10" value="songID" style="ellipse;whiteSpace=wrap;html=1;align=center;fontStyle=4;" vertex="1" parent="1">
          <mxGeometry x="585" y="390" width="100" height="40" as="geometry" />
        </mxCell>
        <mxCell id="Yq_Sqw8GL6V6F3GW0pic-11" value="" style="endArrow=none;html=1;rounded=0;" edge="1" parent="1" source="Yq_Sqw8GL6V6F3GW0pic-10" target="Yq_Sqw8GL6V6F3GW0pic-89">
          <mxGeometry relative="1" as="geometry">
            <mxPoint x="760" y="375" as="sourcePoint" />
            <mxPoint x="705.7142857142858" y="410" as="targetPoint" />
          </mxGeometry>
        </mxCell>
        <mxCell id="Yq_Sqw8GL6V6F3GW0pic-12" value="song_name" style="ellipse;whiteSpace=wrap;html=1;align=center;" vertex="1" parent="1">
          <mxGeometry x="700" y="400" width="100" height="40" as="geometry" />
        </mxCell>
        <mxCell id="Yq_Sqw8GL6V6F3GW0pic-13" value="" style="endArrow=none;html=1;rounded=0;" edge="1" parent="1" source="Yq_Sqw8GL6V6F3GW0pic-89" target="Yq_Sqw8GL6V6F3GW0pic-12">
          <mxGeometry relative="1" as="geometry">
            <mxPoint x="742.5" y="410" as="sourcePoint" />
            <mxPoint x="1080" y="375" as="targetPoint" />
          </mxGeometry>
        </mxCell>
        <mxCell id="Yq_Sqw8GL6V6F3GW0pic-14" value="" style="endArrow=none;html=1;rounded=0;" edge="1" parent="1" source="Yq_Sqw8GL6V6F3GW0pic-4" target="Yq_Sqw8GL6V6F3GW0pic-89">
          <mxGeometry relative="1" as="geometry">
            <mxPoint x="610" y="590" as="sourcePoint" />
            <mxPoint x="690" y="435.2631578947369" as="targetPoint" />
          </mxGeometry>
        </mxCell>
        <mxCell id="Yq_Sqw8GL6V6F3GW0pic-15" value="" style="endArrow=none;html=1;rounded=0;" edge="1" parent="1" source="Yq_Sqw8GL6V6F3GW0pic-5" target="Yq_Sqw8GL6V6F3GW0pic-4">
          <mxGeometry relative="1" as="geometry">
            <mxPoint x="640" y="410" as="sourcePoint" />
            <mxPoint x="800" y="410" as="targetPoint" />
          </mxGeometry>
        </mxCell>
        <mxCell id="Yq_Sqw8GL6V6F3GW0pic-16" value="band" style="whiteSpace=wrap;html=1;align=center;" vertex="1" parent="1">
          <mxGeometry x="260" y="520" width="100" height="40" as="geometry" />
        </mxCell>
        <mxCell id="Yq_Sqw8GL6V6F3GW0pic-17" value="bandID" style="ellipse;whiteSpace=wrap;html=1;align=center;fontStyle=4;" vertex="1" parent="1">
          <mxGeometry x="330" y="575" width="100" height="40" as="geometry" />
        </mxCell>
        <mxCell id="Yq_Sqw8GL6V6F3GW0pic-18" value="band_name" style="ellipse;whiteSpace=wrap;html=1;align=center;" vertex="1" parent="1">
          <mxGeometry x="200" y="575" width="100" height="40" as="geometry" />
        </mxCell>
        <mxCell id="Yq_Sqw8GL6V6F3GW0pic-19" value="" style="endArrow=none;html=1;rounded=0;" edge="1" parent="1" source="Yq_Sqw8GL6V6F3GW0pic-18" target="Yq_Sqw8GL6V6F3GW0pic-16">
          <mxGeometry relative="1" as="geometry">
            <mxPoint x="135" y="725" as="sourcePoint" />
            <mxPoint x="295" y="725" as="targetPoint" />
          </mxGeometry>
        </mxCell>
        <mxCell id="Yq_Sqw8GL6V6F3GW0pic-20" value="" style="endArrow=none;html=1;rounded=0;" edge="1" parent="1" source="Yq_Sqw8GL6V6F3GW0pic-16" target="Yq_Sqw8GL6V6F3GW0pic-17">
          <mxGeometry relative="1" as="geometry">
            <mxPoint x="225" y="735" as="sourcePoint" />
            <mxPoint x="385" y="735" as="targetPoint" />
          </mxGeometry>
        </mxCell>
        <mxCell id="Yq_Sqw8GL6V6F3GW0pic-21" value="lyrics" style="ellipse;whiteSpace=wrap;html=1;align=center;" vertex="1" parent="1">
          <mxGeometry x="820" y="390" width="100" height="40" as="geometry" />
        </mxCell>
        <mxCell id="Yq_Sqw8GL6V6F3GW0pic-22" value="" style="endArrow=none;html=1;rounded=0;" edge="1" parent="1" source="Yq_Sqw8GL6V6F3GW0pic-89" target="Yq_Sqw8GL6V6F3GW0pic-21">
          <mxGeometry relative="1" as="geometry">
            <mxPoint x="780" y="410" as="sourcePoint" />
            <mxPoint x="970" y="510" as="targetPoint" />
          </mxGeometry>
        </mxCell>
        <mxCell id="Yq_Sqw8GL6V6F3GW0pic-23" value="band_member" style="shape=rhombus;perimeter=rhombusPerimeter;whiteSpace=wrap;html=1;align=center;" vertex="1" parent="1">
          <mxGeometry x="330" y="450" width="120" height="60" as="geometry" />
        </mxCell>
        <mxCell id="Yq_Sqw8GL6V6F3GW0pic-24" value="" style="endArrow=none;html=1;rounded=0;" edge="1" parent="1" source="Yq_Sqw8GL6V6F3GW0pic-23" target="Yq_Sqw8GL6V6F3GW0pic-16">
          <mxGeometry relative="1" as="geometry">
            <mxPoint x="390" y="630" as="sourcePoint" />
            <mxPoint x="550" y="630" as="targetPoint" />
          </mxGeometry>
        </mxCell>
        <mxCell id="Yq_Sqw8GL6V6F3GW0pic-25" value="" style="endArrow=none;html=1;rounded=0;" edge="1" parent="1" source="Yq_Sqw8GL6V6F3GW0pic-23" target="Yq_Sqw8GL6V6F3GW0pic-5">
          <mxGeometry relative="1" as="geometry">
            <mxPoint x="200" y="520" as="sourcePoint" />
            <mxPoint x="360" y="520" as="targetPoint" />
          </mxGeometry>
        </mxCell>
        <mxCell id="Yq_Sqw8GL6V6F3GW0pic-26" value="lyricist" style="whiteSpace=wrap;html=1;align=center;" vertex="1" parent="1">
          <mxGeometry x="850" y="580" width="100" height="40" as="geometry" />
        </mxCell>
        <mxCell id="Yq_Sqw8GL6V6F3GW0pic-27" value="full_name" style="ellipse;whiteSpace=wrap;html=1;align=center;" vertex="1" parent="1">
          <mxGeometry x="905" y="640" width="100" height="40" as="geometry" />
        </mxCell>
        <mxCell id="Yq_Sqw8GL6V6F3GW0pic-28" value="lyricist_ID" style="ellipse;whiteSpace=wrap;html=1;align=center;fontStyle=4;" vertex="1" parent="1">
          <mxGeometry x="790" y="640" width="100" height="40" as="geometry" />
        </mxCell>
        <mxCell id="Yq_Sqw8GL6V6F3GW0pic-29" value="" style="endArrow=none;html=1;rounded=0;" edge="1" parent="1" source="Yq_Sqw8GL6V6F3GW0pic-28" target="Yq_Sqw8GL6V6F3GW0pic-26">
          <mxGeometry relative="1" as="geometry">
            <mxPoint x="655" y="480" as="sourcePoint" />
            <mxPoint x="815" y="480" as="targetPoint" />
          </mxGeometry>
        </mxCell>
        <mxCell id="Yq_Sqw8GL6V6F3GW0pic-30" value="" style="endArrow=none;html=1;rounded=0;" edge="1" parent="1" source="Yq_Sqw8GL6V6F3GW0pic-26" target="Yq_Sqw8GL6V6F3GW0pic-27">
          <mxGeometry relative="1" as="geometry">
            <mxPoint x="875" y="560" as="sourcePoint" />
            <mxPoint x="1035" y="560" as="targetPoint" />
          </mxGeometry>
        </mxCell>
        <mxCell id="Yq_Sqw8GL6V6F3GW0pic-31" value="writer" style="shape=rhombus;perimeter=rhombusPerimeter;whiteSpace=wrap;html=1;align=center;" vertex="1" parent="1">
          <mxGeometry x="730" y="520" width="120" height="60" as="geometry" />
        </mxCell>
        <mxCell id="Yq_Sqw8GL6V6F3GW0pic-32" value="" style="endArrow=none;html=1;rounded=0;" edge="1" parent="1" source="Yq_Sqw8GL6V6F3GW0pic-89" target="Yq_Sqw8GL6V6F3GW0pic-31">
          <mxGeometry relative="1" as="geometry">
            <mxPoint x="790" y="440.7142857142858" as="sourcePoint" />
            <mxPoint x="1050" y="430" as="targetPoint" />
          </mxGeometry>
        </mxCell>
        <mxCell id="Yq_Sqw8GL6V6F3GW0pic-33" value="" style="endArrow=classic;html=1;" edge="1" parent="1" source="Yq_Sqw8GL6V6F3GW0pic-31" target="Yq_Sqw8GL6V6F3GW0pic-26">
          <mxGeometry width="50" height="50" relative="1" as="geometry">
            <mxPoint x="950" y="460" as="sourcePoint" />
            <mxPoint x="1000" y="410" as="targetPoint" />
          </mxGeometry>
        </mxCell>
        <mxCell id="Yq_Sqw8GL6V6F3GW0pic-34" value="year" style="ellipse;whiteSpace=wrap;html=1;align=center;fontStyle=4;" vertex="1" parent="1">
          <mxGeometry x="970" y="895" width="100" height="40" as="geometry" />
        </mxCell>
        <mxCell id="Yq_Sqw8GL6V6F3GW0pic-35" value="" style="endArrow=none;html=1;rounded=0;" edge="1" parent="1" source="Yq_Sqw8GL6V6F3GW0pic-88" target="Yq_Sqw8GL6V6F3GW0pic-34">
          <mxGeometry relative="1" as="geometry">
            <mxPoint x="929.9999999999995" y="915" as="sourcePoint" />
            <mxPoint x="1340" y="925" as="targetPoint" />
          </mxGeometry>
        </mxCell>
        <mxCell id="Yq_Sqw8GL6V6F3GW0pic-36" value="" style="endArrow=none;html=1;rounded=0;" edge="1" parent="1" source="Yq_Sqw8GL6V6F3GW0pic-38" target="Yq_Sqw8GL6V6F3GW0pic-2">
          <mxGeometry relative="1" as="geometry">
            <mxPoint x="735" y="950.4000000000001" as="sourcePoint" />
            <mxPoint x="920" y="920" as="targetPoint" />
          </mxGeometry>
        </mxCell>
        <mxCell id="Yq_Sqw8GL6V6F3GW0pic-37" value="" style="endArrow=classic;html=1;" edge="1" parent="1" source="Yq_Sqw8GL6V6F3GW0pic-2" target="Yq_Sqw8GL6V6F3GW0pic-88">
          <mxGeometry width="50" height="50" relative="1" as="geometry">
            <mxPoint x="870" y="915" as="sourcePoint" />
            <mxPoint x="829.9999999999995" y="909.6428571428573" as="targetPoint" />
          </mxGeometry>
        </mxCell>
        <mxCell id="Yq_Sqw8GL6V6F3GW0pic-38" value="movie" style="whiteSpace=wrap;html=1;align=center;" vertex="1" parent="1">
          <mxGeometry x="600" y="820" width="100" height="40" as="geometry" />
        </mxCell>
        <mxCell id="Yq_Sqw8GL6V6F3GW0pic-39" value="native_name" style="ellipse;whiteSpace=wrap;html=1;align=center;fontStyle=4;" vertex="1" parent="1">
          <mxGeometry x="475" y="850" width="100" height="40" as="geometry" />
        </mxCell>
        <mxCell id="Yq_Sqw8GL6V6F3GW0pic-40" value="" style="endArrow=none;html=1;rounded=0;" edge="1" parent="1" source="Yq_Sqw8GL6V6F3GW0pic-39" target="Yq_Sqw8GL6V6F3GW0pic-38">
          <mxGeometry relative="1" as="geometry">
            <mxPoint x="630" y="800" as="sourcePoint" />
            <mxPoint x="790" y="800" as="targetPoint" />
          </mxGeometry>
        </mxCell>
        <mxCell id="Yq_Sqw8GL6V6F3GW0pic-41" value="english_name" style="ellipse;whiteSpace=wrap;html=1;align=center;" vertex="1" parent="1">
          <mxGeometry x="475" y="800" width="100" height="40" as="geometry" />
        </mxCell>
        <mxCell id="Yq_Sqw8GL6V6F3GW0pic-42" value="" style="endArrow=none;html=1;rounded=0;" edge="1" parent="1" source="Yq_Sqw8GL6V6F3GW0pic-41" target="Yq_Sqw8GL6V6F3GW0pic-38">
          <mxGeometry relative="1" as="geometry">
            <mxPoint x="760" y="850" as="sourcePoint" />
            <mxPoint x="920" y="850" as="targetPoint" />
          </mxGeometry>
        </mxCell>
        <mxCell id="Yq_Sqw8GL6V6F3GW0pic-43" value="trivia" style="ellipse;whiteSpace=wrap;html=1;align=center;" vertex="1" parent="1">
          <mxGeometry x="540" y="730" width="100" height="40" as="geometry" />
        </mxCell>
        <mxCell id="Yq_Sqw8GL6V6F3GW0pic-44" value="" style="endArrow=none;html=1;rounded=0;" edge="1" parent="1" source="Yq_Sqw8GL6V6F3GW0pic-43" target="Yq_Sqw8GL6V6F3GW0pic-38">
          <mxGeometry relative="1" as="geometry">
            <mxPoint x="760" y="840" as="sourcePoint" />
            <mxPoint x="920" y="840" as="targetPoint" />
          </mxGeometry>
        </mxCell>
        <mxCell id="Yq_Sqw8GL6V6F3GW0pic-45" value="plot" style="ellipse;whiteSpace=wrap;html=1;align=center;" vertex="1" parent="1">
          <mxGeometry x="690" y="730" width="100" height="40" as="geometry" />
        </mxCell>
        <mxCell id="Yq_Sqw8GL6V6F3GW0pic-46" value="" style="endArrow=none;html=1;rounded=0;" edge="1" parent="1" source="Yq_Sqw8GL6V6F3GW0pic-45" target="Yq_Sqw8GL6V6F3GW0pic-38">
          <mxGeometry relative="1" as="geometry">
            <mxPoint x="860" y="860" as="sourcePoint" />
            <mxPoint x="1020" y="860" as="targetPoint" />
          </mxGeometry>
        </mxCell>
        <mxCell id="Yq_Sqw8GL6V6F3GW0pic-47" value="actor" style="whiteSpace=wrap;html=1;align=center;" vertex="1" parent="1">
          <mxGeometry x="1070" y="680" width="100" height="40" as="geometry" />
        </mxCell>
        <mxCell id="Yq_Sqw8GL6V6F3GW0pic-48" value="actress" style="whiteSpace=wrap;html=1;align=center;" vertex="1" parent="1">
          <mxGeometry x="1070" y="740" width="100" height="40" as="geometry" />
        </mxCell>
        <mxCell id="Yq_Sqw8GL6V6F3GW0pic-49" value="actressID" style="ellipse;whiteSpace=wrap;html=1;align=center;fontStyle=4;" vertex="1" parent="1">
          <mxGeometry x="1020" y="825" width="100" height="40" as="geometry" />
        </mxCell>
        <mxCell id="Yq_Sqw8GL6V6F3GW0pic-50" value="actorID" style="ellipse;whiteSpace=wrap;html=1;align=center;fontStyle=4;" vertex="1" parent="1">
          <mxGeometry x="1020" y="600" width="100" height="40" as="geometry" />
        </mxCell>
        <mxCell id="Yq_Sqw8GL6V6F3GW0pic-51" value="full_name" style="ellipse;whiteSpace=wrap;html=1;align=center;" vertex="1" parent="1">
          <mxGeometry x="1130" y="600" width="100" height="40" as="geometry" />
        </mxCell>
        <mxCell id="Yq_Sqw8GL6V6F3GW0pic-52" value="full_name" style="ellipse;whiteSpace=wrap;html=1;align=center;" vertex="1" parent="1">
          <mxGeometry x="1130" y="825" width="100" height="40" as="geometry" />
        </mxCell>
        <mxCell id="Yq_Sqw8GL6V6F3GW0pic-53" value="" style="endArrow=none;html=1;rounded=0;" edge="1" parent="1" source="Yq_Sqw8GL6V6F3GW0pic-50" target="Yq_Sqw8GL6V6F3GW0pic-47">
          <mxGeometry relative="1" as="geometry">
            <mxPoint x="1180" y="660" as="sourcePoint" />
            <mxPoint x="1340" y="660" as="targetPoint" />
          </mxGeometry>
        </mxCell>
        <mxCell id="Yq_Sqw8GL6V6F3GW0pic-54" value="" style="endArrow=none;html=1;rounded=0;" edge="1" parent="1" source="Yq_Sqw8GL6V6F3GW0pic-47" target="Yq_Sqw8GL6V6F3GW0pic-51">
          <mxGeometry relative="1" as="geometry">
            <mxPoint x="1210" y="650" as="sourcePoint" />
            <mxPoint x="1370" y="650" as="targetPoint" />
          </mxGeometry>
        </mxCell>
        <mxCell id="Yq_Sqw8GL6V6F3GW0pic-55" value="" style="endArrow=none;html=1;rounded=0;" edge="1" parent="1" source="Yq_Sqw8GL6V6F3GW0pic-48" target="Yq_Sqw8GL6V6F3GW0pic-49">
          <mxGeometry relative="1" as="geometry">
            <mxPoint x="1300" y="725" as="sourcePoint" />
            <mxPoint x="1460" y="725" as="targetPoint" />
          </mxGeometry>
        </mxCell>
        <mxCell id="Yq_Sqw8GL6V6F3GW0pic-56" value="" style="endArrow=none;html=1;rounded=0;" edge="1" parent="1" source="Yq_Sqw8GL6V6F3GW0pic-52" target="Yq_Sqw8GL6V6F3GW0pic-48">
          <mxGeometry relative="1" as="geometry">
            <mxPoint x="1260" y="775" as="sourcePoint" />
            <mxPoint x="1420" y="775" as="targetPoint" />
          </mxGeometry>
        </mxCell>
        <mxCell id="Yq_Sqw8GL6V6F3GW0pic-57" value="" style="endArrow=none;html=1;rounded=0;" edge="1" parent="1" source="Yq_Sqw8GL6V6F3GW0pic-3" target="Yq_Sqw8GL6V6F3GW0pic-47">
          <mxGeometry relative="1" as="geometry">
            <mxPoint x="920" y="750" as="sourcePoint" />
            <mxPoint x="1080" y="750" as="targetPoint" />
          </mxGeometry>
        </mxCell>
        <mxCell id="Yq_Sqw8GL6V6F3GW0pic-58" value="" style="endArrow=none;html=1;rounded=0;" edge="1" parent="1" source="Yq_Sqw8GL6V6F3GW0pic-38" target="Yq_Sqw8GL6V6F3GW0pic-3">
          <mxGeometry relative="1" as="geometry">
            <mxPoint x="820" y="750" as="sourcePoint" />
            <mxPoint x="980" y="750" as="targetPoint" />
          </mxGeometry>
        </mxCell>
        <mxCell id="Yq_Sqw8GL6V6F3GW0pic-59" value="" style="endArrow=none;html=1;rounded=0;" edge="1" parent="1" source="Yq_Sqw8GL6V6F3GW0pic-48" target="Yq_Sqw8GL6V6F3GW0pic-3">
          <mxGeometry relative="1" as="geometry">
            <mxPoint x="810" y="750" as="sourcePoint" />
            <mxPoint x="970" y="750" as="targetPoint" />
          </mxGeometry>
        </mxCell>
        <mxCell id="Yq_Sqw8GL6V6F3GW0pic-60" value="played" style="shape=rhombus;perimeter=rhombusPerimeter;whiteSpace=wrap;html=1;align=center;" vertex="1" parent="1">
          <mxGeometry x="610" y="600" width="120" height="60" as="geometry" />
        </mxCell>
        <mxCell id="Yq_Sqw8GL6V6F3GW0pic-61" value="" style="endArrow=none;html=1;rounded=0;" edge="1" parent="1" source="Yq_Sqw8GL6V6F3GW0pic-60" target="Yq_Sqw8GL6V6F3GW0pic-89">
          <mxGeometry relative="1" as="geometry">
            <mxPoint x="650" y="480" as="sourcePoint" />
            <mxPoint x="730" y="450" as="targetPoint" />
          </mxGeometry>
        </mxCell>
        <mxCell id="Yq_Sqw8GL6V6F3GW0pic-62" value="" style="endArrow=none;html=1;rounded=0;" edge="1" parent="1" source="Yq_Sqw8GL6V6F3GW0pic-38" target="Yq_Sqw8GL6V6F3GW0pic-60">
          <mxGeometry relative="1" as="geometry">
            <mxPoint x="410" y="660" as="sourcePoint" />
            <mxPoint x="570" y="660" as="targetPoint" />
          </mxGeometry>
        </mxCell>
        <mxCell id="Yq_Sqw8GL6V6F3GW0pic-63" value="video_link" style="whiteSpace=wrap;html=1;align=center;" vertex="1" parent="1">
          <mxGeometry x="160" y="810" width="100" height="40" as="geometry" />
        </mxCell>
        <mxCell id="Yq_Sqw8GL6V6F3GW0pic-64" value="linkID" style="ellipse;whiteSpace=wrap;html=1;align=center;fontStyle=4;" vertex="1" parent="1">
          <mxGeometry x="40" y="820" width="100" height="40" as="geometry" />
        </mxCell>
        <mxCell id="Yq_Sqw8GL6V6F3GW0pic-65" value="URL" style="ellipse;whiteSpace=wrap;html=1;align=center;" vertex="1" parent="1">
          <mxGeometry x="50" y="890" width="100" height="40" as="geometry" />
        </mxCell>
        <mxCell id="Yq_Sqw8GL6V6F3GW0pic-66" value="" style="endArrow=none;html=1;rounded=0;" edge="1" parent="1" source="Yq_Sqw8GL6V6F3GW0pic-64" target="Yq_Sqw8GL6V6F3GW0pic-63">
          <mxGeometry relative="1" as="geometry">
            <mxPoint x="-10" y="765" as="sourcePoint" />
            <mxPoint x="150" y="765" as="targetPoint" />
          </mxGeometry>
        </mxCell>
        <mxCell id="Yq_Sqw8GL6V6F3GW0pic-67" value="" style="endArrow=none;html=1;rounded=0;" edge="1" parent="1" source="Yq_Sqw8GL6V6F3GW0pic-63" target="Yq_Sqw8GL6V6F3GW0pic-65">
          <mxGeometry relative="1" as="geometry">
            <mxPoint x="380" y="845" as="sourcePoint" />
            <mxPoint x="540" y="845" as="targetPoint" />
          </mxGeometry>
        </mxCell>
        <mxCell id="Yq_Sqw8GL6V6F3GW0pic-68" value="audio_link" style="whiteSpace=wrap;html=1;align=center;" vertex="1" parent="1">
          <mxGeometry x="160" y="700" width="100" height="40" as="geometry" />
        </mxCell>
        <mxCell id="Yq_Sqw8GL6V6F3GW0pic-69" value="linkID" style="ellipse;whiteSpace=wrap;html=1;align=center;fontStyle=4;" vertex="1" parent="1">
          <mxGeometry x="80" y="755" width="100" height="40" as="geometry" />
        </mxCell>
        <mxCell id="Yq_Sqw8GL6V6F3GW0pic-70" value="URL" style="ellipse;whiteSpace=wrap;html=1;align=center;" vertex="1" parent="1">
          <mxGeometry x="80" y="640" width="100" height="40" as="geometry" />
        </mxCell>
        <mxCell id="Yq_Sqw8GL6V6F3GW0pic-71" value="" style="endArrow=none;html=1;rounded=0;" edge="1" parent="1" source="Yq_Sqw8GL6V6F3GW0pic-69" target="Yq_Sqw8GL6V6F3GW0pic-68">
          <mxGeometry relative="1" as="geometry">
            <mxPoint x="-10" y="655" as="sourcePoint" />
            <mxPoint x="150" y="655" as="targetPoint" />
          </mxGeometry>
        </mxCell>
        <mxCell id="Yq_Sqw8GL6V6F3GW0pic-72" value="" style="endArrow=none;html=1;rounded=0;" edge="1" parent="1" source="Yq_Sqw8GL6V6F3GW0pic-68" target="Yq_Sqw8GL6V6F3GW0pic-70">
          <mxGeometry relative="1" as="geometry">
            <mxPoint x="380" y="735" as="sourcePoint" />
            <mxPoint x="540" y="735" as="targetPoint" />
          </mxGeometry>
        </mxCell>
        <mxCell id="Yq_Sqw8GL6V6F3GW0pic-73" value="promotes" style="shape=rhombus;perimeter=rhombusPerimeter;whiteSpace=wrap;html=1;align=center;" vertex="1" parent="1">
          <mxGeometry x="345" y="660" width="120" height="60" as="geometry" />
        </mxCell>
        <mxCell id="Yq_Sqw8GL6V6F3GW0pic-74" value="" style="endArrow=classic;html=1;" edge="1" parent="1" source="Yq_Sqw8GL6V6F3GW0pic-73" target="Yq_Sqw8GL6V6F3GW0pic-89">
          <mxGeometry width="50" height="50" relative="1" as="geometry">
            <mxPoint x="480" y="620" as="sourcePoint" />
            <mxPoint x="716.5517241379312" y="450" as="targetPoint" />
          </mxGeometry>
        </mxCell>
        <mxCell id="Yq_Sqw8GL6V6F3GW0pic-75" value="" style="endArrow=classic;html=1;" edge="1" parent="1" source="Yq_Sqw8GL6V6F3GW0pic-73" target="Yq_Sqw8GL6V6F3GW0pic-68">
          <mxGeometry width="50" height="50" relative="1" as="geometry">
            <mxPoint x="270" y="940" as="sourcePoint" />
            <mxPoint x="320" y="890" as="targetPoint" />
          </mxGeometry>
        </mxCell>
        <mxCell id="Yq_Sqw8GL6V6F3GW0pic-76" value="" style="endArrow=classic;html=1;" edge="1" parent="1" source="Yq_Sqw8GL6V6F3GW0pic-73" target="Yq_Sqw8GL6V6F3GW0pic-38">
          <mxGeometry width="50" height="50" relative="1" as="geometry">
            <mxPoint x="260" y="930" as="sourcePoint" />
            <mxPoint x="310" y="880" as="targetPoint" />
          </mxGeometry>
        </mxCell>
        <mxCell id="Yq_Sqw8GL6V6F3GW0pic-77" value="" style="endArrow=classic;html=1;" edge="1" parent="1" source="Yq_Sqw8GL6V6F3GW0pic-73" target="Yq_Sqw8GL6V6F3GW0pic-63">
          <mxGeometry width="50" height="50" relative="1" as="geometry">
            <mxPoint x="360" y="820" as="sourcePoint" />
            <mxPoint x="410" y="770" as="targetPoint" />
          </mxGeometry>
        </mxCell>
        <mxCell id="Yq_Sqw8GL6V6F3GW0pic-78" value="photo" style="ellipse;whiteSpace=wrap;html=1;align=center;" vertex="1" parent="1">
          <mxGeometry x="80" y="970" width="100" height="40" as="geometry" />
        </mxCell>
        <mxCell id="Yq_Sqw8GL6V6F3GW0pic-79" value="photo" style="whiteSpace=wrap;html=1;align=center;" vertex="1" parent="1">
          <mxGeometry x="170" y="907.5" width="100" height="40" as="geometry" />
        </mxCell>
        <mxCell id="Yq_Sqw8GL6V6F3GW0pic-80" value="" style="endArrow=none;html=1;rounded=0;" edge="1" parent="1" source="Yq_Sqw8GL6V6F3GW0pic-79" target="Yq_Sqw8GL6V6F3GW0pic-78">
          <mxGeometry relative="1" as="geometry">
            <mxPoint x="-20" y="1110" as="sourcePoint" />
            <mxPoint x="140" y="1110" as="targetPoint" />
          </mxGeometry>
        </mxCell>
        <mxCell id="Yq_Sqw8GL6V6F3GW0pic-81" value="photoID" style="ellipse;whiteSpace=wrap;html=1;align=center;fontStyle=4;" vertex="1" parent="1">
          <mxGeometry x="150" y="1020" width="100" height="40" as="geometry" />
        </mxCell>
        <mxCell id="Yq_Sqw8GL6V6F3GW0pic-82" value="" style="endArrow=none;html=1;rounded=0;" edge="1" parent="1" source="Yq_Sqw8GL6V6F3GW0pic-81" target="Yq_Sqw8GL6V6F3GW0pic-79">
          <mxGeometry relative="1" as="geometry">
            <mxPoint x="430" y="1120" as="sourcePoint" />
            <mxPoint x="590" y="1120" as="targetPoint" />
          </mxGeometry>
        </mxCell>
        <mxCell id="Yq_Sqw8GL6V6F3GW0pic-83" value="poster" style="whiteSpace=wrap;html=1;align=center;" vertex="1" parent="1">
          <mxGeometry x="350" y="780" width="100" height="40" as="geometry" />
        </mxCell>
        <mxCell id="Yq_Sqw8GL6V6F3GW0pic-84" value="poster" style="ellipse;whiteSpace=wrap;html=1;align=center;" vertex="1" parent="1">
          <mxGeometry x="370" y="840" width="100" height="40" as="geometry" />
        </mxCell>
        <mxCell id="Yq_Sqw8GL6V6F3GW0pic-85" value="posterID" style="ellipse;whiteSpace=wrap;html=1;align=center;fontStyle=4;" vertex="1" parent="1">
          <mxGeometry x="270" y="860" width="100" height="40" as="geometry" />
        </mxCell>
        <mxCell id="Yq_Sqw8GL6V6F3GW0pic-86" value="" style="endArrow=none;html=1;rounded=0;" edge="1" parent="1" source="Yq_Sqw8GL6V6F3GW0pic-83" target="Yq_Sqw8GL6V6F3GW0pic-85">
          <mxGeometry relative="1" as="geometry">
            <mxPoint x="290" y="1260" as="sourcePoint" />
            <mxPoint x="450" y="1260" as="targetPoint" />
          </mxGeometry>
        </mxCell>
        <mxCell id="Yq_Sqw8GL6V6F3GW0pic-87" value="" style="endArrow=none;html=1;rounded=0;" edge="1" parent="1" source="Yq_Sqw8GL6V6F3GW0pic-83" target="Yq_Sqw8GL6V6F3GW0pic-84">
          <mxGeometry relative="1" as="geometry">
            <mxPoint x="330" y="1280" as="sourcePoint" />
            <mxPoint x="490" y="1280" as="targetPoint" />
          </mxGeometry>
        </mxCell>
        <mxCell id="Yq_Sqw8GL6V6F3GW0pic-88" value="year" style="shape=ext;margin=3;double=1;whiteSpace=wrap;html=1;align=center;" vertex="1" parent="1">
          <mxGeometry x="840" y="890" width="100" height="40" as="geometry" />
        </mxCell>
        <mxCell id="Yq_Sqw8GL6V6F3GW0pic-89" value="song" style="shape=ext;margin=3;double=1;whiteSpace=wrap;html=1;align=center;" vertex="1" parent="1">
          <mxGeometry x="620.0042857142857" y="490" width="100" height="40" as="geometry" />
        </mxCell>
        <mxCell id="Yq_Sqw8GL6V6F3GW0pic-90" value="" style="endArrow=classic;html=1;" edge="1" parent="1" source="Yq_Sqw8GL6V6F3GW0pic-73" target="Yq_Sqw8GL6V6F3GW0pic-79">
          <mxGeometry width="50" height="50" relative="1" as="geometry">
            <mxPoint x="350" y="870" as="sourcePoint" />
            <mxPoint x="400" y="820" as="targetPoint" />
          </mxGeometry>
        </mxCell>
        <mxCell id="Yq_Sqw8GL6V6F3GW0pic-91" value="" style="endArrow=classic;html=1;" edge="1" parent="1" source="Yq_Sqw8GL6V6F3GW0pic-73" target="Yq_Sqw8GL6V6F3GW0pic-83">
          <mxGeometry width="50" height="50" relative="1" as="geometry">
            <mxPoint x="380" y="990" as="sourcePoint" />
            <mxPoint x="430" y="940" as="targetPoint" />
          </mxGeometry>
        </mxCell>
        <mxCell id="Yq_Sqw8GL6V6F3GW0pic-92" value="keywords" style="whiteSpace=wrap;html=1;align=center;" vertex="1" parent="1">
          <mxGeometry x="260" y="1087.5" width="100" height="40" as="geometry" />
        </mxCell>
        <mxCell id="Yq_Sqw8GL6V6F3GW0pic-93" value="keyword" style="ellipse;whiteSpace=wrap;html=1;align=center;" vertex="1" parent="1">
          <mxGeometry x="200" y="1140" width="100" height="40" as="geometry" />
        </mxCell>
        <mxCell id="Yq_Sqw8GL6V6F3GW0pic-94" value="keywordID" style="ellipse;whiteSpace=wrap;html=1;align=center;fontStyle=4;" vertex="1" parent="1">
          <mxGeometry x="310" y="1140" width="100" height="40" as="geometry" />
        </mxCell>
        <mxCell id="Yq_Sqw8GL6V6F3GW0pic-95" value="" style="endArrow=none;html=1;rounded=0;" edge="1" parent="1" source="Yq_Sqw8GL6V6F3GW0pic-92" target="Yq_Sqw8GL6V6F3GW0pic-93">
          <mxGeometry relative="1" as="geometry">
            <mxPoint x="430" y="1190" as="sourcePoint" />
            <mxPoint x="590" y="1190" as="targetPoint" />
          </mxGeometry>
        </mxCell>
        <mxCell id="Yq_Sqw8GL6V6F3GW0pic-96" value="" style="endArrow=none;html=1;rounded=0;" edge="1" parent="1" source="Yq_Sqw8GL6V6F3GW0pic-92" target="Yq_Sqw8GL6V6F3GW0pic-94">
          <mxGeometry relative="1" as="geometry">
            <mxPoint x="380" y="1220" as="sourcePoint" />
            <mxPoint x="540" y="1220" as="targetPoint" />
          </mxGeometry>
        </mxCell>
        <mxCell id="Yq_Sqw8GL6V6F3GW0pic-97" value="genre" style="whiteSpace=wrap;html=1;align=center;" vertex="1" parent="1">
          <mxGeometry x="290" y="917.5" width="100" height="40" as="geometry" />
        </mxCell>
        <mxCell id="Yq_Sqw8GL6V6F3GW0pic-98" value="genre" style="ellipse;whiteSpace=wrap;html=1;align=center;" vertex="1" parent="1">
          <mxGeometry x="235" y="977.5" width="100" height="40" as="geometry" />
        </mxCell>
        <mxCell id="Yq_Sqw8GL6V6F3GW0pic-99" value="genreID" style="ellipse;whiteSpace=wrap;html=1;align=center;fontStyle=4;" vertex="1" parent="1">
          <mxGeometry x="345" y="977.5" width="100" height="40" as="geometry" />
        </mxCell>
        <mxCell id="Yq_Sqw8GL6V6F3GW0pic-100" value="" style="endArrow=none;html=1;rounded=0;" edge="1" parent="1" source="Yq_Sqw8GL6V6F3GW0pic-97" target="Yq_Sqw8GL6V6F3GW0pic-98">
          <mxGeometry relative="1" as="geometry">
            <mxPoint x="80" y="1255" as="sourcePoint" />
            <mxPoint x="240" y="1255" as="targetPoint" />
          </mxGeometry>
        </mxCell>
        <mxCell id="Yq_Sqw8GL6V6F3GW0pic-101" value="" style="endArrow=none;html=1;rounded=0;" edge="1" parent="1" source="Yq_Sqw8GL6V6F3GW0pic-97" target="Yq_Sqw8GL6V6F3GW0pic-99">
          <mxGeometry relative="1" as="geometry">
            <mxPoint x="160" y="1245" as="sourcePoint" />
            <mxPoint x="320" y="1245" as="targetPoint" />
          </mxGeometry>
        </mxCell>
        <mxCell id="Yq_Sqw8GL6V6F3GW0pic-102" value="country" style="whiteSpace=wrap;html=1;align=center;" vertex="1" parent="1">
          <mxGeometry x="425" y="1200" width="100" height="40" as="geometry" />
        </mxCell>
        <mxCell id="Yq_Sqw8GL6V6F3GW0pic-103" value="countryID" style="ellipse;whiteSpace=wrap;html=1;align=center;fontStyle=4;" vertex="1" parent="1">
          <mxGeometry x="360" y="1267.5" width="100" height="40" as="geometry" />
        </mxCell>
        <mxCell id="Yq_Sqw8GL6V6F3GW0pic-104" value="country" style="ellipse;whiteSpace=wrap;html=1;align=center;" vertex="1" parent="1">
          <mxGeometry x="490" y="1267.5" width="100" height="40" as="geometry" />
        </mxCell>
        <mxCell id="Yq_Sqw8GL6V6F3GW0pic-105" value="" style="endArrow=none;html=1;rounded=0;" edge="1" parent="1" source="Yq_Sqw8GL6V6F3GW0pic-102" target="Yq_Sqw8GL6V6F3GW0pic-103">
          <mxGeometry relative="1" as="geometry">
            <mxPoint x="580" y="1212.5" as="sourcePoint" />
            <mxPoint x="740" y="1212.5" as="targetPoint" />
          </mxGeometry>
        </mxCell>
        <mxCell id="Yq_Sqw8GL6V6F3GW0pic-106" value="" style="endArrow=none;html=1;rounded=0;" edge="1" parent="1" source="Yq_Sqw8GL6V6F3GW0pic-102" target="Yq_Sqw8GL6V6F3GW0pic-104">
          <mxGeometry relative="1" as="geometry">
            <mxPoint x="600" y="1152.5" as="sourcePoint" />
            <mxPoint x="760" y="1152.5" as="targetPoint" />
          </mxGeometry>
        </mxCell>
        <mxCell id="Yq_Sqw8GL6V6F3GW0pic-107" value="language" style="whiteSpace=wrap;html=1;align=center;" vertex="1" parent="1">
          <mxGeometry x="590" y="1107.5" width="100" height="40" as="geometry" />
        </mxCell>
        <mxCell id="Yq_Sqw8GL6V6F3GW0pic-108" value="languageID" style="ellipse;whiteSpace=wrap;html=1;align=center;fontStyle=4;" vertex="1" parent="1">
          <mxGeometry x="550" y="1200" width="100" height="40" as="geometry" />
        </mxCell>
        <mxCell id="Yq_Sqw8GL6V6F3GW0pic-109" value="language" style="ellipse;whiteSpace=wrap;html=1;align=center;" vertex="1" parent="1">
          <mxGeometry x="660" y="1200" width="100" height="40" as="geometry" />
        </mxCell>
        <mxCell id="Yq_Sqw8GL6V6F3GW0pic-110" value="" style="endArrow=none;html=1;rounded=0;" edge="1" parent="1" source="Yq_Sqw8GL6V6F3GW0pic-107" target="Yq_Sqw8GL6V6F3GW0pic-108">
          <mxGeometry relative="1" as="geometry">
            <mxPoint x="635" y="1270" as="sourcePoint" />
            <mxPoint x="795" y="1270" as="targetPoint" />
          </mxGeometry>
        </mxCell>
        <mxCell id="Yq_Sqw8GL6V6F3GW0pic-111" value="" style="endArrow=none;html=1;rounded=0;" edge="1" parent="1" source="Yq_Sqw8GL6V6F3GW0pic-107" target="Yq_Sqw8GL6V6F3GW0pic-109">
          <mxGeometry relative="1" as="geometry">
            <mxPoint x="655" y="1210" as="sourcePoint" />
            <mxPoint x="815" y="1210" as="targetPoint" />
          </mxGeometry>
        </mxCell>
        <mxCell id="Yq_Sqw8GL6V6F3GW0pic-112" value="producer" style="whiteSpace=wrap;html=1;align=center;" vertex="1" parent="1">
          <mxGeometry x="770" y="1035" width="100" height="40" as="geometry" />
        </mxCell>
        <mxCell id="Yq_Sqw8GL6V6F3GW0pic-113" value="producerID" style="ellipse;whiteSpace=wrap;html=1;align=center;fontStyle=4;" vertex="1" parent="1">
          <mxGeometry x="710" y="1132.5" width="100" height="40" as="geometry" />
        </mxCell>
        <mxCell id="Yq_Sqw8GL6V6F3GW0pic-114" value="full_name" style="ellipse;whiteSpace=wrap;html=1;align=center;" vertex="1" parent="1">
          <mxGeometry x="820" y="1132.5" width="100" height="40" as="geometry" />
        </mxCell>
        <mxCell id="Yq_Sqw8GL6V6F3GW0pic-115" value="" style="endArrow=none;html=1;rounded=0;" edge="1" parent="1" source="Yq_Sqw8GL6V6F3GW0pic-112" target="Yq_Sqw8GL6V6F3GW0pic-113">
          <mxGeometry relative="1" as="geometry">
            <mxPoint x="870" y="1090" as="sourcePoint" />
            <mxPoint x="1030" y="1090" as="targetPoint" />
          </mxGeometry>
        </mxCell>
        <mxCell id="Yq_Sqw8GL6V6F3GW0pic-116" value="" style="endArrow=none;html=1;rounded=0;" edge="1" parent="1" source="Yq_Sqw8GL6V6F3GW0pic-112" target="Yq_Sqw8GL6V6F3GW0pic-114">
          <mxGeometry relative="1" as="geometry">
            <mxPoint x="890" y="1030" as="sourcePoint" />
            <mxPoint x="1050" y="1030" as="targetPoint" />
          </mxGeometry>
        </mxCell>
        <mxCell id="Yq_Sqw8GL6V6F3GW0pic-117" value="director" style="whiteSpace=wrap;html=1;align=center;" vertex="1" parent="1">
          <mxGeometry x="1035" y="947.5" width="100" height="40" as="geometry" />
        </mxCell>
        <mxCell id="Yq_Sqw8GL6V6F3GW0pic-118" value="directorID" style="ellipse;whiteSpace=wrap;html=1;align=center;fontStyle=4;" vertex="1" parent="1">
          <mxGeometry x="965" y="1032.5" width="100" height="40" as="geometry" />
        </mxCell>
        <mxCell id="Yq_Sqw8GL6V6F3GW0pic-119" value="full_name" style="ellipse;whiteSpace=wrap;html=1;align=center;" vertex="1" parent="1">
          <mxGeometry x="1095" y="1032.5" width="100" height="40" as="geometry" />
        </mxCell>
        <mxCell id="Yq_Sqw8GL6V6F3GW0pic-120" value="" style="endArrow=none;html=1;rounded=0;" edge="1" parent="1" source="Yq_Sqw8GL6V6F3GW0pic-117" target="Yq_Sqw8GL6V6F3GW0pic-118">
          <mxGeometry relative="1" as="geometry">
            <mxPoint x="1185" y="977.5" as="sourcePoint" />
            <mxPoint x="1345" y="977.5" as="targetPoint" />
          </mxGeometry>
        </mxCell>
        <mxCell id="Yq_Sqw8GL6V6F3GW0pic-121" value="" style="endArrow=none;html=1;rounded=0;" edge="1" parent="1" source="Yq_Sqw8GL6V6F3GW0pic-117" target="Yq_Sqw8GL6V6F3GW0pic-119">
          <mxGeometry relative="1" as="geometry">
            <mxPoint x="1205" y="917.5" as="sourcePoint" />
            <mxPoint x="1365" y="917.5" as="targetPoint" />
          </mxGeometry>
        </mxCell>
        <mxCell id="Yq_Sqw8GL6V6F3GW0pic-122" value="music_director" style="whiteSpace=wrap;html=1;align=center;" vertex="1" parent="1">
          <mxGeometry x="1010" y="1120" width="100" height="40" as="geometry" />
        </mxCell>
        <mxCell id="Yq_Sqw8GL6V6F3GW0pic-123" value="directorID" style="ellipse;whiteSpace=wrap;html=1;align=center;fontStyle=4;" vertex="1" parent="1">
          <mxGeometry x="940" y="1205" width="100" height="40" as="geometry" />
        </mxCell>
        <mxCell id="Yq_Sqw8GL6V6F3GW0pic-124" value="full_name" style="ellipse;whiteSpace=wrap;html=1;align=center;" vertex="1" parent="1">
          <mxGeometry x="1070" y="1205" width="100" height="40" as="geometry" />
        </mxCell>
        <mxCell id="Yq_Sqw8GL6V6F3GW0pic-125" value="" style="endArrow=none;html=1;rounded=0;" edge="1" parent="1" source="Yq_Sqw8GL6V6F3GW0pic-122" target="Yq_Sqw8GL6V6F3GW0pic-123">
          <mxGeometry relative="1" as="geometry">
            <mxPoint x="1160" y="1150" as="sourcePoint" />
            <mxPoint x="1320" y="1150" as="targetPoint" />
          </mxGeometry>
        </mxCell>
        <mxCell id="Yq_Sqw8GL6V6F3GW0pic-126" value="" style="endArrow=none;html=1;rounded=0;" edge="1" parent="1" source="Yq_Sqw8GL6V6F3GW0pic-122" target="Yq_Sqw8GL6V6F3GW0pic-124">
          <mxGeometry relative="1" as="geometry">
            <mxPoint x="1180" y="1090" as="sourcePoint" />
            <mxPoint x="1340" y="1090" as="targetPoint" />
          </mxGeometry>
        </mxCell>
        <mxCell id="Yq_Sqw8GL6V6F3GW0pic-127" value="directs" style="shape=rhombus;perimeter=rhombusPerimeter;whiteSpace=wrap;html=1;align=center;" vertex="1" parent="1">
          <mxGeometry x="680" y="907.5" width="120" height="60" as="geometry" />
        </mxCell>
        <mxCell id="Yq_Sqw8GL6V6F3GW0pic-128" value="" style="endArrow=classic;html=1;" edge="1" parent="1" source="Yq_Sqw8GL6V6F3GW0pic-127" target="Yq_Sqw8GL6V6F3GW0pic-117">
          <mxGeometry width="50" height="50" relative="1" as="geometry">
            <mxPoint x="910" y="1140" as="sourcePoint" />
            <mxPoint x="960" y="1090" as="targetPoint" />
          </mxGeometry>
        </mxCell>
        <mxCell id="Yq_Sqw8GL6V6F3GW0pic-129" value="" style="endArrow=none;html=1;rounded=0;" edge="1" parent="1" source="Yq_Sqw8GL6V6F3GW0pic-38" target="Yq_Sqw8GL6V6F3GW0pic-127">
          <mxGeometry relative="1" as="geometry">
            <mxPoint x="570" y="930" as="sourcePoint" />
            <mxPoint x="730" y="930" as="targetPoint" />
          </mxGeometry>
        </mxCell>
        <mxCell id="Yq_Sqw8GL6V6F3GW0pic-130" value="produces" style="shape=rhombus;perimeter=rhombusPerimeter;whiteSpace=wrap;html=1;align=center;" vertex="1" parent="1">
          <mxGeometry x="640" y="967.5" width="120" height="60" as="geometry" />
        </mxCell>
        <mxCell id="Yq_Sqw8GL6V6F3GW0pic-131" value="" style="endArrow=classic;html=1;" edge="1" parent="1" source="Yq_Sqw8GL6V6F3GW0pic-130" target="Yq_Sqw8GL6V6F3GW0pic-112">
          <mxGeometry width="50" height="50" relative="1" as="geometry">
            <mxPoint x="760" y="1190" as="sourcePoint" />
            <mxPoint x="810" y="1140" as="targetPoint" />
          </mxGeometry>
        </mxCell>
        <mxCell id="Yq_Sqw8GL6V6F3GW0pic-132" value="" style="endArrow=none;html=1;rounded=0;" edge="1" parent="1" source="Yq_Sqw8GL6V6F3GW0pic-38" target="Yq_Sqw8GL6V6F3GW0pic-130">
          <mxGeometry relative="1" as="geometry">
            <mxPoint x="530" y="1030" as="sourcePoint" />
            <mxPoint x="690" y="1030" as="targetPoint" />
          </mxGeometry>
        </mxCell>
        <mxCell id="Yq_Sqw8GL6V6F3GW0pic-133" value="" style="endArrow=classic;html=1;" edge="1" parent="1" source="Yq_Sqw8GL6V6F3GW0pic-127" target="Yq_Sqw8GL6V6F3GW0pic-122">
          <mxGeometry width="50" height="50" relative="1" as="geometry">
            <mxPoint x="830" y="1060" as="sourcePoint" />
            <mxPoint x="880" y="1010" as="targetPoint" />
          </mxGeometry>
        </mxCell>
        <mxCell id="Yq_Sqw8GL6V6F3GW0pic-134" value="spoken" style="shape=rhombus;perimeter=rhombusPerimeter;whiteSpace=wrap;html=1;align=center;" vertex="1" parent="1">
          <mxGeometry x="570" y="1027.5" width="120" height="60" as="geometry" />
        </mxCell>
        <mxCell id="Yq_Sqw8GL6V6F3GW0pic-135" value="" style="endArrow=none;html=1;rounded=0;" edge="1" parent="1" source="Yq_Sqw8GL6V6F3GW0pic-134" target="Yq_Sqw8GL6V6F3GW0pic-38">
          <mxGeometry relative="1" as="geometry">
            <mxPoint x="470" y="960" as="sourcePoint" />
            <mxPoint x="630" y="960" as="targetPoint" />
          </mxGeometry>
        </mxCell>
        <mxCell id="Yq_Sqw8GL6V6F3GW0pic-136" value="" style="endArrow=none;html=1;rounded=0;" edge="1" parent="1" source="Yq_Sqw8GL6V6F3GW0pic-134" target="Yq_Sqw8GL6V6F3GW0pic-107">
          <mxGeometry relative="1" as="geometry">
            <mxPoint x="155" y="955" as="sourcePoint" />
            <mxPoint x="315" y="955" as="targetPoint" />
          </mxGeometry>
        </mxCell>
        <mxCell id="Yq_Sqw8GL6V6F3GW0pic-137" value="filmed_in" style="shape=rhombus;perimeter=rhombusPerimeter;whiteSpace=wrap;html=1;align=center;" vertex="1" parent="1">
          <mxGeometry x="465" y="1087.5" width="120" height="60" as="geometry" />
        </mxCell>
        <mxCell id="Yq_Sqw8GL6V6F3GW0pic-138" value="" style="endArrow=none;html=1;rounded=0;" edge="1" parent="1" source="Yq_Sqw8GL6V6F3GW0pic-137" target="Yq_Sqw8GL6V6F3GW0pic-102">
          <mxGeometry relative="1" as="geometry">
            <mxPoint x="250" y="1080" as="sourcePoint" />
            <mxPoint x="410" y="1080" as="targetPoint" />
          </mxGeometry>
        </mxCell>
        <mxCell id="Yq_Sqw8GL6V6F3GW0pic-139" value="" style="endArrow=none;html=1;rounded=0;" edge="1" parent="1" source="Yq_Sqw8GL6V6F3GW0pic-38" target="Yq_Sqw8GL6V6F3GW0pic-137">
          <mxGeometry relative="1" as="geometry">
            <mxPoint x="510" y="970" as="sourcePoint" />
            <mxPoint x="670" y="970" as="targetPoint" />
          </mxGeometry>
        </mxCell>
        <mxCell id="Yq_Sqw8GL6V6F3GW0pic-140" value="UNKNOWN" style="shape=rhombus;perimeter=rhombusPerimeter;whiteSpace=wrap;html=1;align=center;" vertex="1" parent="1">
          <mxGeometry x="425" y="900" width="120" height="60" as="geometry" />
        </mxCell>
        <mxCell id="Yq_Sqw8GL6V6F3GW0pic-141" value="" style="endArrow=none;html=1;rounded=0;" edge="1" parent="1" source="Yq_Sqw8GL6V6F3GW0pic-97" target="Yq_Sqw8GL6V6F3GW0pic-140">
          <mxGeometry relative="1" as="geometry">
            <mxPoint x="410" y="970" as="sourcePoint" />
            <mxPoint x="570" y="970" as="targetPoint" />
          </mxGeometry>
        </mxCell>
        <mxCell id="Yq_Sqw8GL6V6F3GW0pic-142" value="" style="endArrow=none;html=1;rounded=0;" edge="1" parent="1" source="Yq_Sqw8GL6V6F3GW0pic-140" target="Yq_Sqw8GL6V6F3GW0pic-38">
          <mxGeometry relative="1" as="geometry">
            <mxPoint x="470" y="930" as="sourcePoint" />
            <mxPoint x="630" y="930" as="targetPoint" />
          </mxGeometry>
        </mxCell>
        <mxCell id="Yq_Sqw8GL6V6F3GW0pic-143" value="UNKNOWN" style="shape=rhombus;perimeter=rhombusPerimeter;whiteSpace=wrap;html=1;align=center;" vertex="1" parent="1">
          <mxGeometry x="380" y="1028" width="120" height="60" as="geometry" />
        </mxCell>
        <mxCell id="Yq_Sqw8GL6V6F3GW0pic-144" value="" style="endArrow=none;html=1;rounded=0;" edge="1" parent="1" source="Yq_Sqw8GL6V6F3GW0pic-143" target="Yq_Sqw8GL6V6F3GW0pic-92">
          <mxGeometry relative="1" as="geometry">
            <mxPoint x="110" y="1270" as="sourcePoint" />
            <mxPoint x="270" y="1270" as="targetPoint" />
          </mxGeometry>
        </mxCell>
        <mxCell id="Yq_Sqw8GL6V6F3GW0pic-145" value="" style="endArrow=none;html=1;rounded=0;" edge="1" parent="1" source="Yq_Sqw8GL6V6F3GW0pic-143" target="Yq_Sqw8GL6V6F3GW0pic-38">
          <mxGeometry relative="1" as="geometry">
            <mxPoint x="160" y="1250" as="sourcePoint" />
            <mxPoint x="320" y="1250" as="targetPoint" />
          </mxGeometry>
        </mxCell>
      </root>
    </mxGraphModel>
  </diagram>
</mxfile>
